<svg id="visual" viewBox="0 0 960 300" width="960" height="300" xmlns="http://www.w3.org/2000/svg" xmlns:xlink="http://www.w3.org/1999/xlink" version="1.1"><path d="M0 61L14.5 65.5C29 70 58 79 87.2 78C116.3 77 145.7 66 174.8 62.5C204 59 233 63 262 70C291 77 320 87 349 89C378 91 407 85 436.2 83.5C465.3 82 494.7 85 523.8 86.5C553 88 582 88 611 90C640 92 669 96 698 87C727 78 756 56 785.2 59.5C814.3 63 843.7 92 872.8 93.5C902 95 931 69 945.5 56L960 43L960 0L945.5 0C931 0 902 0 872.8 0C843.7 0 814.3 0 785.2 0C756 0 727 0 698 0C669 0 640 0 611 0C582 0 553 0 523.8 0C494.7 0 465.3 0 436.2 0C407 0 378 0 349 0C320 0 291 0 262 0C233 0 204 0 174.8 0C145.7 0 116.3 0 87.2 0C58 0 29 0 14.5 0L0 0Z" fill="#ff0066"></path><path d="M0 88L14.5 96.5C29 105 58 122 87.2 124C116.3 126 145.7 113 174.8 108C204 103 233 106 262 110C291 114 320 119 349 118C378 117 407 110 436.2 112C465.3 114 494.7 125 523.8 129.5C553 134 582 132 611 130.5C640 129 669 128 698 119.5C727 111 756 95 785.2 98.5C814.3 102 843.7 125 872.8 123C902 121 931 94 945.5 80.5L960 67L960 41L945.5 54C931 67 902 93 872.8 91.5C843.7 90 814.3 61 785.2 57.5C756 54 727 76 698 85C669 94 640 90 611 88C582 86 553 86 523.8 84.5C494.7 83 465.3 80 436.2 81.5C407 83 378 89 349 87C320 85 291 75 262 68C233 61 204 57 174.8 60.5C145.7 64 116.3 75 87.2 76C58 77 29 68 14.5 63.5L0 59Z" fill="#bd2b84"></path><path d="M0 136L14.5 147C29 158 58 180 87.2 181.5C116.3 183 145.7 164 174.8 160C204 156 233 167 262 171C291 175 320 172 349 166.5C378 161 407 153 436.2 152.5C465.3 152 494.7 159 523.8 168C553 177 582 188 611 190.5C640 193 669 187 698 179C727 171 756 161 785.2 164.5C814.3 168 843.7 185 872.8 182C902 179 931 156 945.5 144.5L960 133L960 65L945.5 78.5C931 92 902 119 872.8 121C843.7 123 814.3 100 785.2 96.5C756 93 727 109 698 117.5C669 126 640 127 611 128.5C582 130 553 132 523.8 127.5C494.7 123 465.3 112 436.2 110C407 108 378 115 349 116C320 117 291 112 262 108C233 104 204 101 174.8 106C145.7 111 116.3 124 87.2 122C58 120 29 103 14.5 94.5L0 86Z" fill="#733c81"></path><path d="M0 262L14.5 263.5C29 265 58 268 87.2 267.5C116.3 267 145.7 263 174.8 260C204 257 233 255 262 258C291 261 320 269 349 272C378 275 407 273 436.2 268.5C465.3 264 494.7 257 523.8 258C553 259 582 268 611 267C640 266 669 255 698 251C727 247 756 250 785.2 254C814.3 258 843.7 263 872.8 261.5C902 260 931 252 945.5 248L960 244L960 131L945.5 142.5C931 154 902 177 872.8 180C843.7 183 814.3 166 785.2 162.5C756 159 727 169 698 177C669 185 640 191 611 188.5C582 186 553 175 523.8 166C494.7 157 465.3 150 436.2 150.5C407 151 378 159 349 164.5C320 170 291 173 262 169C233 165 204 154 174.8 158C145.7 162 116.3 181 87.2 179.5C58 178 29 156 14.5 145L0 134Z" fill="#373860"></path><path d="M0 301L14.5 301C29 301 58 301 87.2 301C116.3 301 145.7 301 174.8 301C204 301 233 301 262 301C291 301 320 301 349 301C378 301 407 301 436.2 301C465.3 301 494.7 301 523.8 301C553 301 582 301 611 301C640 301 669 301 698 301C727 301 756 301 785.2 301C814.3 301 843.7 301 872.8 301C902 301 931 301 945.5 301L960 301L960 242L945.5 246C931 250 902 258 872.8 259.5C843.7 261 814.3 256 785.2 252C756 248 727 245 698 249C669 253 640 264 611 265C582 266 553 257 523.8 256C494.7 255 465.3 262 436.2 266.5C407 271 378 273 349 270C320 267 291 259 262 256C233 253 204 255 174.8 258C145.7 261 116.3 265 87.2 265.5C58 266 29 263 14.5 261.5L0 260Z" fill="#202731"></path></svg>