<svg id="visual" viewBox="0 0 960 300" width="960" height="300" xmlns="http://www.w3.org/2000/svg" xmlns:xlink="http://www.w3.org/1999/xlink" version="1.1"><rect x="0" y="0" width="960" height="300" fill="#001220"></rect><path d="M0 174L22.8 179.5C45.7 185 91.3 196 137 199.5C182.7 203 228.3 199 274 197.5C319.7 196 365.3 197 411.2 199.3C457 201.7 503 205.3 548.8 207.8C594.7 210.3 640.3 211.7 686 208.5C731.7 205.3 777.3 197.7 823 196.5C868.7 195.3 914.3 200.7 937.2 203.3L960 206L960 301L937.2 301C914.3 301 868.7 301 823 301C777.3 301 731.7 301 686 301C640.3 301 594.7 301 548.8 301C503 301 457 301 411.2 301C365.3 301 319.7 301 274 301C228.3 301 182.7 301 137 301C91.3 301 45.7 301 22.8 301L0 301Z" fill="#fa7268"></path><path d="M0 218L22.8 217.5C45.7 217 91.3 216 137 218.8C182.7 221.7 228.3 228.3 274 228C319.7 227.7 365.3 220.3 411.2 214C457 207.7 503 202.3 548.8 204C594.7 205.7 640.3 214.3 686 218.5C731.7 222.7 777.3 222.3 823 224.3C868.7 226.3 914.3 230.7 937.2 232.8L960 235L960 301L937.2 301C914.3 301 868.7 301 823 301C777.3 301 731.7 301 686 301C640.3 301 594.7 301 548.8 301C503 301 457 301 411.2 301C365.3 301 319.7 301 274 301C228.3 301 182.7 301 137 301C91.3 301 45.7 301 22.8 301L0 301Z" fill="#ef5f67"></path><path d="M0 223L22.8 226.2C45.7 229.3 91.3 235.7 137 237C182.7 238.3 228.3 234.7 274 233.7C319.7 232.7 365.3 234.3 411.2 236.3C457 238.3 503 240.7 548.8 243.3C594.7 246 640.3 249 686 244.8C731.7 240.7 777.3 229.3 823 229.2C868.7 229 914.3 240 937.2 245.5L960 251L960 301L937.2 301C914.3 301 868.7 301 823 301C777.3 301 731.7 301 686 301C640.3 301 594.7 301 548.8 301C503 301 457 301 411.2 301C365.3 301 319.7 301 274 301C228.3 301 182.7 301 137 301C91.3 301 45.7 301 22.8 301L0 301Z" fill="#e34c67"></path><path d="M0 241L22.8 241.7C45.7 242.3 91.3 243.7 137 245.5C182.7 247.3 228.3 249.7 274 249.5C319.7 249.3 365.3 246.7 411.2 246.8C457 247 503 250 548.8 254C594.7 258 640.3 263 686 261.7C731.7 260.3 777.3 252.7 823 252.5C868.7 252.3 914.3 259.7 937.2 263.3L960 267L960 301L937.2 301C914.3 301 868.7 301 823 301C777.3 301 731.7 301 686 301C640.3 301 594.7 301 548.8 301C503 301 457 301 411.2 301C365.3 301 319.7 301 274 301C228.3 301 182.7 301 137 301C91.3 301 45.7 301 22.8 301L0 301Z" fill="#d53867"></path><path d="M0 267L22.8 270.2C45.7 273.3 91.3 279.7 137 279C182.7 278.3 228.3 270.7 274 267C319.7 263.3 365.3 263.7 411.2 267C457 270.3 503 276.7 548.8 277.7C594.7 278.7 640.3 274.3 686 271.7C731.7 269 777.3 268 823 269.5C868.7 271 914.3 275 937.2 277L960 279L960 301L937.2 301C914.3 301 868.7 301 823 301C777.3 301 731.7 301 686 301C640.3 301 594.7 301 548.8 301C503 301 457 301 411.2 301C365.3 301 319.7 301 274 301C228.3 301 182.7 301 137 301C91.3 301 45.7 301 22.8 301L0 301Z" fill="#c62368"></path></svg>