<svg id="visual" viewBox="0 0 960 300" width="960" height="300" xmlns="http://www.w3.org/2000/svg" xmlns:xlink="http://www.w3.org/1999/xlink" version="1.1"><rect x="0" y="0" width="960" height="300" fill="#202731"></rect><path d="M0 116L22.8 111.3C45.7 106.7 91.3 97.3 137 91.3C182.7 85.3 228.3 82.7 274 86.7C319.7 90.7 365.3 101.3 411.2 106.3C457 111.3 503 110.7 548.8 110.2C594.7 109.7 640.3 109.3 686 104.3C731.7 99.3 777.3 89.7 823 87.7C868.7 85.7 914.3 91.3 937.2 94.2L960 97L960 0L937.2 0C914.3 0 868.7 0 823 0C777.3 0 731.7 0 686 0C640.3 0 594.7 0 548.8 0C503 0 457 0 411.2 0C365.3 0 319.7 0 274 0C228.3 0 182.7 0 137 0C91.3 0 45.7 0 22.8 0L0 0Z" fill="#ff6f61"></path><path d="M0 97L22.8 92C45.7 87 91.3 77 137 71.5C182.7 66 228.3 65 274 70.7C319.7 76.3 365.3 88.7 411.2 92.7C457 96.7 503 92.3 548.8 91.8C594.7 91.3 640.3 94.7 686 92.2C731.7 89.7 777.3 81.3 823 76.7C868.7 72 914.3 71 937.2 70.5L960 70L960 0L937.2 0C914.3 0 868.7 0 823 0C777.3 0 731.7 0 686 0C640.3 0 594.7 0 548.8 0C503 0 457 0 411.2 0C365.3 0 319.7 0 274 0C228.3 0 182.7 0 137 0C91.3 0 45.7 0 22.8 0L0 0Z" fill="#f76455"></path><path d="M0 72L22.8 69.3C45.7 66.7 91.3 61.3 137 62.3C182.7 63.3 228.3 70.7 274 70C319.7 69.3 365.3 60.7 411.2 61C457 61.3 503 70.7 548.8 69.5C594.7 68.3 640.3 56.7 686 51C731.7 45.3 777.3 45.7 823 46.7C868.7 47.7 914.3 49.3 937.2 50.2L960 51L960 0L937.2 0C914.3 0 868.7 0 823 0C777.3 0 731.7 0 686 0C640.3 0 594.7 0 548.8 0C503 0 457 0 411.2 0C365.3 0 319.7 0 274 0C228.3 0 182.7 0 137 0C91.3 0 45.7 0 22.8 0L0 0Z" fill="#ee5849"></path><path d="M0 32L22.8 31.7C45.7 31.3 91.3 30.7 137 34C182.7 37.3 228.3 44.7 274 49.3C319.7 54 365.3 56 411.2 56C457 56 503 54 548.8 50.7C594.7 47.3 640.3 42.7 686 40.5C731.7 38.3 777.3 38.7 823 40.5C868.7 42.3 914.3 45.7 937.2 47.3L960 49L960 0L937.2 0C914.3 0 868.7 0 823 0C777.3 0 731.7 0 686 0C640.3 0 594.7 0 548.8 0C503 0 457 0 411.2 0C365.3 0 319.7 0 274 0C228.3 0 182.7 0 137 0C91.3 0 45.7 0 22.8 0L0 0Z" fill="#e64c3d"></path><path d="M0 26L22.8 26.8C45.7 27.7 91.3 29.3 137 29C182.7 28.7 228.3 26.3 274 23.8C319.7 21.3 365.3 18.7 411.2 18.3C457 18 503 20 548.8 20.2C594.7 20.3 640.3 18.7 686 18.3C731.7 18 777.3 19 823 19C868.7 19 914.3 18 937.2 17.5L960 17L960 0L937.2 0C914.3 0 868.7 0 823 0C777.3 0 731.7 0 686 0C640.3 0 594.7 0 548.8 0C503 0 457 0 411.2 0C365.3 0 319.7 0 274 0C228.3 0 182.7 0 137 0C91.3 0 45.7 0 22.8 0L0 0Z" fill="#dd3f31"></path></svg>